<svg width="35" height="35" viewBox="0 0 35 35" fill="none" xmlns="http://www.w3.org/2000/svg">
<path d="M7.9762 0.866734C3.72508 3.85085 0.807648 8.7188 0.174147 13.9202C-0.0759187 15.9207 -0.0592477 16.9376 0.240831 18.9215C0.574253 21.0721 1.15774 22.8559 2.17467 24.8397C5.09211 30.4912 10.5102 34.1588 16.9953 34.859C22.4133 35.4592 28.1315 33.392 32.0826 29.4243C33.2329 28.274 35 25.94 35 25.5899C35 25.5232 34.8666 25.5232 34.7166 25.5899C32.516 26.4401 27.8981 26.7736 25.0474 26.2568C17.6454 24.9397 11.6438 19.6717 9.3599 12.5031C8.22627 8.91886 8.14292 4.63439 9.15985 1.08346C9.32656 0.483299 9.40992 -0.000164032 9.34323 -0.000164032C9.27655 -0.000164032 8.65972 0.38327 7.9762 0.866734Z" fill="white"/>
</svg>
