<?xml version="1.0" standalone="no"?>
<!DOCTYPE svg PUBLIC "-//W3C//DTD SVG 20010904//EN"
 "http://www.w3.org/TR/2001/REC-SVG-20010904/DTD/svg10.dtd">
<svg version="1.0" xmlns="http://www.w3.org/2000/svg"
 width="360.000000pt" height="360.000000pt" viewBox="0 0 360.000000 360.000000"
 preserveAspectRatio="xMidYMid meet">

<g transform="translate(0.000000,360.000000) scale(0.100000,-0.100000)"
fill="#000000" stroke="none">
<path d="M1733 3581 c-69 -43 -68 -40 -66 -393 2 -344 5 -359 58 -394 34 -22
116 -22 149 -1 54 36 57 49 63 279 3 117 2 266 -2 332 -7 115 -8 120 -39 153
-41 44 -114 55 -163 24z"/>
<path d="M573 3100 c-76 -34 -105 -119 -64 -186 24 -40 305 -329 394 -406 60
-51 72 -58 111 -58 115 0 176 122 107 216 -50 68 -404 410 -448 433 -51 25
-48 25 -100 1z"/>
<path d="M2953 3112 c-27 -4 -257 -216 -395 -362 -108 -114 -122 -144 -97
-214 25 -73 117 -108 187 -72 39 20 436 424 456 465 45 87 -48 200 -151 183z"/>
<path d="M1640 2614 c-158 -33 -283 -99 -397 -208 -125 -118 -208 -254 -248
-406 -24 -88 -24 -309 -1 -400 74 -291 321 -535 616 -611 36 -9 106 -14 205
-13 136 0 157 3 230 28 268 92 473 298 555 561 27 87 37 259 21 368 -39 278
-263 547 -535 646 -138 49 -315 64 -446 35z m300 -279 c135 -36 259 -130 332
-251 136 -224 103 -489 -82 -674 -220 -220 -557 -219 -778 2 -173 172 -212
421 -101 640 64 127 210 244 350 282 70 19 210 20 279 1z"/>
<path d="M132 1932 c-55 -6 -68 -12 -92 -39 -53 -59 -52 -133 4 -189 43 -43
95 -48 433 -42 243 4 266 6 291 24 70 52 78 150 17 211 -33 33 -34 33 -126 33
-52 0 -177 2 -279 4 -102 3 -214 1 -248 -2z"/>
<path d="M2916 1933 c-72 -5 -108 -28 -130 -84 -22 -55 -12 -102 30 -144 44
-44 93 -49 434 -43 297 5 302 6 336 77 26 54 14 118 -30 158 -36 33 -36 33
-143 33 -60 0 -182 2 -273 4 -91 2 -192 2 -224 -1z"/>
<path d="M965 1140 c-27 -10 -306 -280 -401 -387 -67 -76 -74 -87 -74 -126 0
-100 101 -173 182 -131 41 21 444 418 465 458 20 38 13 119 -13 147 -37 42
-110 60 -159 39z"/>
<path d="M2521 1132 c-58 -31 -85 -104 -61 -166 11 -30 271 -299 387 -401 46
-40 95 -75 109 -78 96 -18 186 90 149 178 -15 38 -368 404 -439 456 -46 34
-95 38 -145 11z"/>
<path d="M1765 823 c-97 -25 -110 -92 -99 -500 l7 -247 31 -34 c56 -61 160
-53 211 16 19 26 20 43 20 352 0 294 -2 328 -18 353 -9 15 -27 33 -40 41 -26
16 -83 26 -112 19z"/>
</g>
</svg>
